<?xml version="1.0" standalone="no"?>
<!DOCTYPE svg PUBLIC "-//W3C//DTD SVG 20010904//EN"
 "http://www.w3.org/TR/2001/REC-SVG-20010904/DTD/svg10.dtd">
<svg version="1.0" xmlns="http://www.w3.org/2000/svg"
 width="225.000000pt" height="225.000000pt" viewBox="0 0 225.000000 225.000000"
 preserveAspectRatio="xMidYMid meet">
<metadata>
Created by potrace 1.14, written by Peter Selinger 2001-2017
</metadata>
<g transform="translate(0.000000,225.000000) scale(0.100000,-0.100000)"
fill="#000000" stroke="none">
<path d="M72 2215 c-18 -8 -37 -26 -42 -40 -14 -38 -14 -2080 1 -2107 26 -49
7 -48 1094 -48 1106 0 1073 -2 1095 55 16 42 13 2073 -3 2105 -7 14 -28 30
-47 37 -26 9 -290 12 -1050 12 -854 0 -1020 -2 -1048 -14z m1082 -381 c11 -10
16 -34 16 -75 l0 -59 176 0 c98 0 195 -5 221 -11 58 -15 117 -70 132 -124 7
-26 11 -174 11 -425 0 -353 -2 -388 -19 -425 -42 -91 -97 -115 -264 -115
l-123 0 -68 -99 c-82 -121 -99 -137 -126 -125 -10 5 -52 56 -92 114 l-74 105
-134 6 c-147 6 -171 12 -213 55 -63 63 -62 53 -65 471 -2 253 1 396 8 423 14
51 63 108 115 131 34 16 68 19 233 19 l192 0 0 63 c0 36 5 68 12 75 17 17 44
15 62 -4z m-776 -386 c8 -8 12 -65 12 -190 0 -165 -1 -178 -19 -188 -27 -14
-37 -13 -55 6 -13 13 -16 44 -16 188 0 180 4 196 45 196 12 0 26 -5 33 -12z
m1562 -7 c6 -11 10 -89 10 -182 0 -137 -3 -165 -17 -181 -19 -21 -44 -23 -61
-6 -13 13 -18 369 -5 381 14 15 63 7 73 -12z"/>
<path d="M683 1600 c-12 -5 -30 -21 -40 -36 -16 -25 -18 -58 -21 -296 l-3
-268 500 0 501 0 0 265 c0 295 -3 314 -61 334 -39 13 -843 14 -876 1z m264
-282 c32 -30 31 -81 -3 -115 -21 -21 -32 -24 -62 -19 -67 10 -93 76 -51 130
27 34 82 36 116 4z m472 -4 c29 -37 27 -79 -5 -109 -76 -70 -183 37 -112 112
31 33 90 32 117 -3z"/>
<path d="M622 836 c5 -82 24 -121 64 -136 14 -6 87 -10 163 -10 l138 0 64 -95
c35 -52 67 -94 71 -95 4 0 37 43 73 95 l66 95 149 0 c140 0 150 1 175 23 31
26 49 101 39 160 l-6 37 -500 0 -501 0 5 -74z"/>
</g>
</svg>
